<?xml version="1.0" encoding="UTF-8" standalone="no"?>
<svg
   xmlns:dc="http://purl.org/dc/elements/1.1/"
   xmlns:cc="http://creativecommons.org/ns#"
   xmlns:rdf="http://www.w3.org/1999/02/22-rdf-syntax-ns#"
   xmlns:svg="http://www.w3.org/2000/svg"
   xmlns="http://www.w3.org/2000/svg"
   xmlns:sodipodi="http://sodipodi.sourceforge.net/DTD/sodipodi-0.dtd"
   xmlns:inkscape="http://www.inkscape.org/namespaces/inkscape"
   width="128mm"
   height="128mm"
   viewBox="0 0 128 128"
   version="1.1"
   id="svg8"
   sodipodi:docname="shirt.svg"
   inkscape:version="1.0.2 (e86c870879, 2021-01-15, custom)">
  <defs
     id="defs2" />
  <sodipodi:namedview
     id="base"
     pagecolor="#ffffff"
     bordercolor="#666666"
     borderopacity="1.0"
     inkscape:pageopacity="0.0"
     inkscape:pageshadow="2"
     inkscape:zoom="0.49497475"
     inkscape:cx="115.91806"
     inkscape:cy="265.20101"
     inkscape:document-units="mm"
     inkscape:current-layer="layer1"
     inkscape:document-rotation="0"
     showgrid="false"
     inkscape:window-width="1507"
     inkscape:window-height="1156"
     inkscape:window-x="1166"
     inkscape:window-y="487"
     inkscape:window-maximized="0"
     inkscape:snap-page="true" />
  <metadata
     id="metadata5">
    <rdf:RDF>
      <cc:Work
         rdf:about="">
        <dc:format>image/svg+xml</dc:format>
        <dc:type
           rdf:resource="http://purl.org/dc/dcmitype/StillImage" />
        <dc:title></dc:title>
      </cc:Work>
    </rdf:RDF>
  </metadata>
  <g
     inkscape:label="Layer 1"
     inkscape:groupmode="layer"
     id="layer1">
    <path
       sodipodi:nodetypes="ccccccssssccccccccc"
       d="m 26.15862,14.892945 c -1.632684,-0.0077 -4.806612,1.682538 -6.562649,4.724162 L 7.0963452,41.268997 c -2.6095489,4.51989 -1.0717497,10.259788 3.4481778,12.869337 l 7.612055,4.395237 c 3.106092,1.793302 6.788194,1.627137 9.634727,-0.118608 v 46.095487 c 0,4.763 3.83568,8.59669 8.598637,8.59669 h 55.222079 c 4.762996,0 8.596689,-3.83369 8.596689,-8.59669 V 58.414963 c 2.84653,1.745783 6.52863,1.911948 9.63469,0.118608 l 7.61209,-4.395237 c 4.51993,-2.609549 6.05773,-8.349371 3.44818,-12.869337 L 108.40404,19.617145 c -1.756,-3.041509 -4.93008,-4.729709 -6.56269,-4.723626 l -10.229329,0.0077 H 36.389942 Z"
       style="fill:none;fill-opacity:1;stroke:#ffffff;stroke-width:10.123;stroke-miterlimit:4;stroke-dasharray:none;stroke-opacity:1"
       id="outline"
       inkscape:label="outline" />
    <path
       d="m 27.791765,14.898684 v 0.0033 c -3.26537,-0.0153 -6.43903,1.67416 -8.195067,4.715783 L 7.0955799,41.269189 C 4.4860311,45.789078 6.0242894,51.528861 10.544217,54.13841 l 7.61305,4.39562 c 4.519927,2.609587 10.259672,1.07129 12.869259,-3.448599 l 12.50043,-21.651508 c 1.5743,-2.726779 1.63697,-5.896651 0.448182,-8.556206 h 40.04966 c -1.18875,2.659555 -1.126118,5.829427 0.448182,8.556206 l 12.500429,21.651508 c 2.609588,4.519889 8.349331,6.058186 12.869261,3.448599 l 7.61305,-4.39562 c 4.51993,-2.609549 6.05822,-8.349294 3.44864,-12.869221 l -12.50108,-21.65147 c -1.756,-3.041509 -4.9292,-4.729939 -8.19446,-4.715783 v -0.0033 z"
       style="fill:#adadad;fill-opacity:1;stroke:none;stroke-width:5.06154;stroke-miterlimit:4;stroke-dasharray:none;stroke-opacity:1;"
       id="light"
       inkscape:label="light" />
    <rect
       ry="8.5974503"
       y="14.898812"
       x="27.791557"
       height="98.209274"
       width="72.416901"
       id="dark"
       style="fill:#989898;fill-opacity:1;stroke:none;stroke-width:5.06154;stroke-miterlimit:4;stroke-dasharray:none;stroke-opacity:1"
       inkscape:label="dark" />
  </g>
</svg>
